<?xml version="1.0" encoding="UTF-8"?>
<!DOCTYPE svg PUBLIC "-//W3C//DTD SVG 1.1//EN" "http://www.w3.org/Graphics/SVG/1.1/DTD/svg11.dtd">
<!-- Creator: CorelDRAW X7 -->
<svg xmlns="http://www.w3.org/2000/svg" xml:space="preserve" width="86.2911mm" height="24.7705mm" version="1.1" style="shape-rendering:geometricPrecision; text-rendering:geometricPrecision; image-rendering:optimizeQuality; fill-rule:evenodd; clip-rule:evenodd"
viewBox="0 0 1610 462"
 xmlns:xlink="http://www.w3.org/1999/xlink">
 <defs>
  <style type="text/css">
   <![CDATA[
    .fil0 {fill:url(#id0)}
    .fil2 {fill:url(#id1);fill-rule:nonzero}
    .fil1 {fill:url(#id2);fill-rule:nonzero}
   ]]>
  </style>
  <linearGradient id="id0" gradientUnits="userSpaceOnUse" x1="253.93" y1="460.46" x2="259.525" y2="1.58737">
   <stop offset="0" style="stop-opacity:1; stop-color:#304A78"/>
   <stop offset="0.309804" style="stop-opacity:1; stop-color:#2459A4"/>
   <stop offset="1" style="stop-opacity:1; stop-color:#1768D1"/>
  </linearGradient>
  <linearGradient id="id1" gradientUnits="userSpaceOnUse" xlink:href="#id0" x1="1123.26" y1="352.324" x2="1124.01" y2="291.221">
  </linearGradient>
  <linearGradient id="id2" gradientUnits="userSpaceOnUse" xlink:href="#id0" x1="1122.44" y1="280.609" x2="1124.53" y2="108.878">
  </linearGradient>
 </defs>
 <g id="Camada_x0020_1">
  <metadata id="CorelCorpID_0Corel-Layer"/>
  <g id="_895193920">
   <path class="fil0" d="M234 0c71,0 134,34 176,88 36,-8 74,-10 92,9 16,17 14,43 1,67 -8,17 -22,35 -31,37 0,0 30,-40 27,-67 -2,-28 -25,-32 -25,-32 0,0 -18,-4 -52,2 26,40 41,89 41,142 0,41 -14,72 -29,102 -37,71 -106,114 -196,114l0 0c113,-8 203,-101 203,-216 0,-6 -1,-12 -1,-18 -16,7 -44,22 -82,45 1,4 1,6 1,6 0,0 5,88 -57,140 0,0 41,-34 45,-108 0,-11 0,-21 0,-30 -4,2 -8,5 -12,8 -70,47 -117,102 -117,102 29,-52 81,-96 128,-128 -4,-43 -18,-69 -36,-93 -5,-7 -11,-14 -17,-21 -43,22 -70,43 -70,43 -83,59 -148,132 -204,215 49,-112 150,-211 261,-270 -19,-18 -45,-33 -84,-43 -4,-1 -9,-2 -13,-2 -14,9 -29,20 -48,36 -45,37 -63,81 -63,81 18,-53 53,-90 88,-117 -51,6 -100,41 -100,41 31,-31 71,-47 112,-49 42,-28 84,-41 106,-47 -18,-4 -36,-7 -55,-7 -120,0 -218,97 -218,216 0,12 1,24 3,35l0 0c-21,-59 1,-130 34,-180 42,-64 115,-101 192,-101l0 0 0 0zm203 210c-6,-37 -22,-71 -45,-100 -11,3 -23,6 -35,11 -18,6 -35,13 -50,21 34,38 46,87 50,114 36,-23 67,-39 80,-46l0 0zm-243 -125c37,3 72,18 101,44 14,-7 28,-13 42,-19 10,-4 25,-9 41,-14 -17,-18 -38,-33 -60,-44 -1,0 -51,2 -83,14 -14,5 -27,11 -41,19l0 0 0 0z"/>
   <g>
    <path class="fil1" d="M761 206l0 -53c0,-4 -1,-9 -3,-13 -2,-4 -5,-8 -8,-11 -4,-3 -7,-6 -12,-8 -4,-2 -8,-3 -13,-3l-52 0c-5,0 -9,1 -13,3 -5,2 -8,5 -12,8 -3,3 -6,7 -7,11 -3,4 -4,9 -4,13l0 53c0,4 1,9 4,13 1,4 4,8 7,11 4,4 7,6 12,8 4,2 8,3 13,3l52 0c5,0 9,-1 13,-3 5,-2 8,-4 12,-8 3,-3 6,-7 8,-11 2,-4 3,-9 3,-13zm-18 0c0,6 -2,10 -4,12 -4,3 -6,5 -9,5 -3,0 -4,1 -5,1l-52 0c-1,0 -2,-1 -5,-1 -3,0 -5,-2 -8,-5 -4,-2 -5,-6 -5,-12l0 -53c0,-5 1,-10 5,-12 3,-3 5,-4 8,-5 3,0 4,-1 5,-1l52 0c1,0 2,1 5,1 3,1 5,2 9,5 2,2 4,7 4,12l0 53zm163 35l0 -88c0,-4 -1,-9 -3,-13 -2,-4 -5,-8 -8,-11 -3,-3 -7,-6 -11,-8 -5,-2 -9,-3 -13,-3l-88 0 0 123 17 0 0 -106 71 0c0,0 2,1 4,1 2,0 4,1 6,2 2,1 4,2 5,5 2,2 2,6 2,10l0 88 18 0 0 0zm145 0l0 -123 -17 0 0 88 -71 0c0,0 -1,0 -4,-1 -3,0 -6,-2 -9,-4 -3,-3 -4,-7 -4,-13l0 -70 -18 0 0 70c0,5 1,9 3,13 2,5 5,8 8,12 4,3 7,6 11,7 5,3 9,4 13,4l71 0 0 17c0,6 -2,10 -5,13 -3,2 -5,4 -8,4 -3,1 -4,1 -5,1l-53 0c-5,0 -9,-2 -12,-5 -2,-3 -4,-6 -5,-8 0,-3 -1,-4 -1,-5l-17 0c0,5 1,9 3,13 2,5 5,8 8,11 4,4 7,6 11,8 5,2 9,3 13,3l53 0c5,0 9,-1 13,-3 4,-2 8,-4 11,-8 4,-3 6,-6 8,-11 3,-4 3,-8 3,-13l0 0zm146 0l0 -35c0,-5 -1,-8 -2,-11 -2,-4 -4,-6 -6,-8 -2,-3 -3,-4 -5,-5 -2,-1 -2,-2 -2,-2 0,0 0,0 2,-1 2,-2 3,-3 5,-6 2,-2 4,-5 6,-8 1,-3 2,-7 2,-12l0 -35 -18 0 0 35c0,6 -1,10 -4,13 -3,2 -6,4 -9,4 -3,0 -4,1 -4,1l-53 0c-1,0 -2,-1 -5,-1 -2,0 -5,-2 -8,-4 -3,-3 -5,-7 -5,-13l0 -35 -18 0 0 35c0,6 2,11 4,15 2,4 5,7 7,9 2,2 3,3 3,3 0,1 -1,1 -3,3 -2,2 -5,4 -7,9 -2,3 -4,8 -4,14l0 35 18 0 0 -35c0,-6 2,-10 5,-12 3,-3 6,-4 8,-5 3,0 4,-1 5,-1l53 0c0,0 1,1 4,1 3,1 6,2 9,5 3,2 4,6 4,12l0 35 18 0 0 0zm228 -61c0,-10 -2,-18 -6,-26 -3,-9 -8,-15 -14,-21 -6,-6 -13,-11 -21,-15 -8,-3 -17,-5 -26,-5 -9,0 -18,2 -26,5 -8,4 -15,9 -21,15 -6,6 -10,12 -14,21 -3,8 -5,16 -5,26 0,9 2,17 5,25 4,9 8,15 14,21 6,6 13,11 21,15 8,3 17,5 26,5 9,0 18,-2 26,-5 8,-4 15,-9 21,-15 6,-6 11,-12 14,-21 4,-8 6,-16 6,-25zm-18 0c0,7 -1,13 -4,19 -2,6 -6,11 -10,15 -4,5 -10,8 -16,11 -6,2 -12,4 -19,4 -6,0 -13,-2 -19,-4 -5,-3 -11,-6 -15,-11 -4,-4 -8,-9 -10,-15 -3,-6 -4,-12 -4,-19 0,-7 1,-13 4,-19 2,-6 6,-11 10,-16 4,-4 10,-7 15,-10 6,-2 13,-4 20,-4 6,0 13,2 18,4 7,3 12,6 16,10 4,5 8,10 10,16 3,6 4,12 4,19l0 0zm57 61l0 -17 -17 0 0 17 17 0zm146 0l0 -70 -71 0 0 17 53 0 0 36 -71 0c-5,0 -9,-2 -12,-5 -3,-3 -4,-5 -5,-8 0,-3 -1,-4 -1,-5l0 -53c0,0 1,-2 1,-4 1,-3 2,-6 5,-9 2,-3 7,-5 12,-5l89 0 0 -17 -89 0c-4,0 -8,1 -12,3 -5,2 -8,5 -12,8 -3,3 -6,7 -8,11 -2,4 -3,8 -3,13l0 53c0,5 1,9 3,13 2,4 5,8 8,11 4,4 7,6 12,8 4,2 8,3 12,3l89 0 0 0 0 0z"/>
    <path class="fil2" d="M817 333c0,-3 -1,-6 -3,-8 -2,-3 -5,-5 -10,-7l-6 -2c-3,0 -4,-2 -5,-3 -1,-1 -1,-3 -1,-5 -1,-2 0,-3 2,-5 1,-2 4,-2 7,-2 1,0 2,0 3,0 1,0 1,1 2,1 1,0 1,0 2,1 0,0 1,0 1,0l3 -4c0,0 0,-1 -1,-1 -1,0 -1,-1 -2,-1 -1,-1 -3,-1 -4,-2 -1,0 -3,0 -4,0 -3,0 -5,0 -7,1 -2,1 -4,2 -5,3 -1,2 -2,3 -3,4 -1,2 -1,4 -1,6 0,1 0,3 0,4 1,2 1,3 2,5 1,1 3,2 4,3 1,1 3,2 5,3l6 1c3,1 4,2 6,3 1,2 1,4 1,6 0,1 0,2 -1,3 0,1 -1,2 -2,3 -1,1 -2,2 -3,2 -2,1 -3,1 -4,1 -2,0 -3,0 -5,0 -1,0 -2,-1 -3,-1 0,0 -1,-1 -2,-1 0,0 0,0 0,0l-3 4c0,0 0,1 1,1 0,1 1,1 2,1 2,1 3,1 5,1 1,1 3,1 5,1 2,0 5,-1 7,-1 2,-1 4,-3 6,-4 1,-2 2,-3 3,-5 1,-2 2,-4 2,-6l0 0zm90 -11c0,-3 0,-7 -1,-10 -1,-3 -2,-6 -4,-9 -2,-2 -4,-4 -6,-6 -3,-1 -7,-2 -10,-2 -4,0 -7,1 -10,2 -2,2 -5,4 -6,6 -2,3 -3,6 -4,9 -1,3 -1,7 -1,10 0,3 0,6 1,10 1,3 2,6 4,8 1,3 4,5 6,7 3,1 6,2 10,2 3,0 7,-1 10,-2 2,-2 4,-4 6,-7 2,-2 3,-5 4,-9 1,-3 1,-6 1,-9zm-7 0c0,2 -1,4 -1,7 0,2 -1,5 -2,7 -1,2 -3,3 -4,5 -2,1 -5,2 -7,2 -3,0 -5,-1 -7,-2 -2,-2 -3,-3 -4,-5 -1,-2 -2,-5 -2,-7 -1,-3 -1,-5 -1,-7 0,-2 0,-5 1,-7 0,-2 1,-5 2,-7 1,-2 2,-3 4,-5 2,-1 4,-2 7,-2 2,0 5,1 7,2 1,1 3,3 4,5 1,2 2,4 2,7 0,2 1,5 1,7l0 0zm86 26l0 -6 -16 0c-1,0 -2,0 -2,0 -1,0 -2,1 -2,1 -1,0 -2,0 -2,1 -1,0 -1,1 -1,1 0,0 0,1 0,1 0,0 0,0 0,-1l0 -49 -7 0 0 52 30 0 0 0zm83 -17l0 -35 -7 0 0 32c0,2 0,3 0,6 0,1 0,3 -1,4 -1,2 -2,3 -4,4 -1,1 -3,1 -6,1 -3,0 -5,0 -6,-1 -2,-1 -3,-3 -4,-4 0,-2 -1,-3 -1,-5 0,-2 0,-4 0,-6l0 -31 -7 0 0 35c0,2 1,5 1,7 1,2 1,4 3,5 1,2 3,3 5,4 3,1 6,2 9,2 4,0 7,-1 9,-1 2,-2 4,-3 5,-5 2,-1 3,-3 3,-5 1,-3 1,-5 1,-7l0 0zm81 -29l0 -6 -37 0 0 6 9 0c2,0 3,-1 4,-1 0,0 1,0 1,-1 0,0 0,-1 0,-1 0,0 1,0 1,0 0,0 0,0 0,0l0 49 7 0 0 -46 15 0 0 0zm53 46l0 -52 -7 0 0 52 7 0zm92 -26c0,-3 0,-7 -1,-10 -1,-3 -2,-6 -4,-9 -2,-2 -4,-4 -6,-6 -3,-1 -6,-2 -10,-2 -4,0 -7,1 -9,2 -3,2 -5,4 -7,6 -2,3 -3,6 -4,9 -1,3 -1,7 -1,10 0,3 0,6 1,10 1,3 2,6 4,8 2,3 4,5 7,7 2,1 5,2 9,2 4,0 7,-1 10,-2 2,-2 4,-4 6,-7 2,-2 3,-5 4,-9 1,-3 1,-6 1,-9zm-7 0c0,2 0,4 -1,7 0,2 -1,5 -2,7 -1,2 -2,3 -4,5 -2,1 -4,2 -7,2 -3,0 -5,-1 -7,-2 -2,-2 -3,-3 -4,-5 -1,-2 -2,-5 -2,-7 -1,-3 -1,-5 -1,-7 0,-2 0,-5 1,-7 0,-2 1,-5 2,-7 1,-2 2,-3 4,-5 2,-1 4,-2 7,-2 3,0 5,1 7,2 2,1 3,3 4,5 1,2 2,4 2,7 1,2 1,5 1,7l0 0zm94 -26l-7 0 0 32c0,2 0,3 1,5 0,2 0,3 1,5 0,1 1,2 1,3 1,1 1,1 1,1 0,0 0,0 -1,0 0,0 0,0 0,0l-24 -46 -10 0 0 52 7 0 0 -46 23 46 8 0 0 -52 0 0 0 0zm80 37c0,-3 -1,-6 -3,-8 -2,-3 -5,-5 -9,-7l-7 -2c-2,0 -3,-2 -4,-3 -1,-1 -2,-3 -2,-5 0,-2 1,-3 3,-5 1,-2 4,-2 7,-2 1,0 2,0 3,0 0,0 1,1 2,1 1,0 1,0 2,1 0,0 0,0 1,0l3 -4c0,0 -1,-1 -1,-1 -1,0 -2,-1 -3,-1 -1,-1 -2,-1 -3,-2 -1,0 -3,0 -5,0 -2,0 -4,0 -6,1 -2,1 -4,2 -5,3 -2,2 -3,3 -3,4 -1,2 -1,4 -1,6 0,1 0,3 0,4 1,2 1,3 2,5 1,1 2,2 4,3 1,1 3,2 5,3l6 1c2,1 4,2 5,3 1,2 2,4 2,6 0,1 0,2 -1,3 0,1 -1,2 -2,3 -1,1 -2,2 -4,2 -1,1 -2,1 -4,1 -1,0 -3,0 -4,0 -1,0 -2,-1 -3,-1 -1,0 -1,-1 -2,-1 0,0 0,0 -1,0l-3 4c1,0 1,1 2,1 0,1 1,1 2,1 1,1 3,1 4,1 2,1 3,1 6,1 2,0 5,-1 7,-1 2,-1 4,-3 6,-4 1,-2 2,-3 3,-5 1,-2 1,-4 1,-6l0 0z"/>
   </g>
  </g>
 </g>
</svg>
